<?xml version="1.0" standalone="no"?>
<!DOCTYPE svg PUBLIC "-//W3C//DTD SVG 20010904//EN"
 "http://www.w3.org/TR/2001/REC-SVG-20010904/DTD/svg10.dtd">
<svg version="1.0" xmlns="http://www.w3.org/2000/svg"
 width="500.000000pt" height="500.000000pt" viewBox="0 0 500.000000 500.000000"
 preserveAspectRatio="xMidYMid meet">
<metadata>
Created by potrace 1.14, written by Peter Selinger 2001-2017
</metadata>
<g transform="translate(0.000000,500.000000) scale(0.100000,-0.100000)"
fill="#000000" stroke="none">
<path d="M0 2500 l0 -2500 2500 0 2500 0 0 2500 0 2500 -2500 0 -2500 0 0
-2500z m2611 390 c352 -662 644 -1209 649 -1214 7 -7 10 416 10 1207 l0 1217
188 -2 187 -3 3 -1457 2 -1458 -267 0 -268 1 -635 1200 c-349 660 -640 1208
-647 1217 -10 13 -12 -241 -13 -1200 l0 -1218 -190 0 -190 0 0 1453 c0 800 3
1457 7 1460 4 4 123 6 266 5 l259 -3 639 -1205z"/>
</g>
</svg>
